<?xml version="1.0" encoding="UTF-8"?>
<svg id="Capa_1" data-name="Capa 1" xmlns="http://www.w3.org/2000/svg" viewBox="0 0 892.95 388.98">
  <defs>
    <style>
      .cls-1 {
        fill: #fff;
        stroke-width: 0px;
      }
    </style>
  </defs>
  <path class="cls-1" d="M423.48,173.97c-.12-15.54-23.82-10.02-23.32,2.88-.17,15.75,24.33,10.73,23.32-2.88Z"/>
  <path class="cls-1" d="M781.46,236.5s-.02,0-.03,0c-.78-.24-1.65.02-2.06.72-31.98,54.78-55.26.64-93.31,16.65,75.43-38,93.43-63.72,96.37-83.16,5.42-35.79-16.07-41.33-44-41.36-33.4-.04-46.53,17.68-56.39,40.83-4.33,10.17-7.26,37.89-15.33,54.93-10,21.11-30.18,43.71-35.28,43.71-9.24,0-2.17-12.42,1.35-18.7l21.62-32.72c4.5-6.81-.79-15.82-8.93-15.21-2.61.2-5.03,1.42-6.73,3.41l-5.81,6.79c-11.11-28.66-48.72-7.11-66.75,12.24-5.61,5.28-12.45,11.89-21.08,19.85-7.4,6.12-29.98,32.04-35.46,23.32,3.76-9.25,21.32-27.5,23.2-34.44,6.52-12.46,5.08-33.89-11.66-34.08-19.04,2.66-31.87,19.41-48.2,36.91,24.52-37.9-7.08-47.77-34.08-14.58,0,0,0,0,0,0-21.58,20.12-50.99,63.04-61.6,51.44-7.68-8.39,15.54-33.71,33.8-52.4,5.49-5.62,1.11-15.04-6.73-14.49-2.01.14-3.89.98-5.34,2.38-1.7,1.64-4.04,3.88-6.74,6.52-22.06,15.96-55.28,59.96-71.57,57.92-24.65,2.22,25.04-82.16,39.31-66.6,2.94,4.04,2.01,5.6.86,7.17-3.48,4.79-2.02,7.74.9,8.61,2.16.64,4.47-.84,5.43-2.87,4.75-10.01-3.72-21.36-16.21-20-11.14,1.32-20.54,4.46-28.29,8.75,0,0-.02,0-.02,0-.04,0-.07-.02-.11-.04-16.61,9.6-29.83,23.25-62.29,46.62,29.41-33.39,24.31-60.07,4.01-62.35-2.82-.31-5.93-.18-9.27.51-8.8,1.75-19.27,7.05-30.46,16.79-13.61,11.73-19.29,31.54-16.67,46.37-12.22,8.59-27.39,14.44-46.22,13.7-28.92-1.14-20.79-41.7-6.6-68.17,17.82-33.19,35.72-67.01,65.11-65.22,25.04,1.52,27.39,15.22,15.53,29.95-.18.22-.25.47-.25.72,0,.72.54,1.54,1.05,2.08,1.52,1.63,3.65.85,5.24-.72,9.83-9.62,33.62-18.69,23.3-49.87-.38-1.12-.47-2.28-.78-3.16-.29-.87-.81-1.48-1.97-1.5-.78,0-1.9.02-2.1.76-2.15,7.18,6.89,23.05-7.86,28.98-1.05-11.48-9.47-19.34-29.1-19.92-32.39-.94-76.36,7.79-105.59,74.98-13.76,31.62-4.41,75.49,35,78.6,23.39,1.84,42.1-4.7,57.07-14.75,5.48,13.65,20.23,19.56,44.67,2.51,12.82-8.93,30.15-23.68,46.44-36.12,0,0,.01,0,.02-.01-20.42,34,5.57,77.49,62.34,19.68-3.61,5.74-5.79,11.04-5.28,15.11,2.09,18.11,22.25,19.53,34.7,10.09,12.89-7.72,37.22-38.85,53.8-54.16,17.6-13.69-2.57,16.58-17.87,37.68-5.46,7.52-.19,18.07,9.1,18.26,3.63.07,7.08-1.55,9.31-4.42,18.46-23.79,69.91-80.92,73.95-63.78,2.11,8.96-23.83,27.87-26.51,36.3-6.33,12.15-3.1,32.74,12.68,33.06,8.38,2.1,30.21-18.42,49.69-37.35-16.51,45.32,35.97,47.63,56.41,8.87-6.13,10.91-3.67,31.15,17.66,28.68,9.61-.79,32.39-24.93,43.45-47.27,11.52-23.27,9.91-39.75,14.24-49.73,8.47-24.44,22.85-38.9,49.86-39.34,16.6.16,21.59,11.93,18.26,28.36-11.97,59.19-86.74,80.93-99.03,91.8-2.48,2.19-4.48,7.29-4.52,8.47,0,.03,0,.07,0,.1-.09,2.54,2.51,4.39,4.82,3.34,24.37-11.03,101.28,30.52,124.63-33.7.34-.94-.19-1.99-1.15-2.28ZM246.27,263.55c-26.43,20.14-24.75,1.01-14.39-20.79,6.24-13.12,15.62-27.17,23.95-34.22,3.83-3.25,7.43-4.99,10.38-4.5,21.67,3.69,1.3,34.51-8.06,46.53-4.54,5.84-4.86,7.61-11.88,12.98ZM572.54,271.51c-8.41-11.4,49.85-95.35,56.2-57.46-3.4,16.01-36.31,63.63-56.2,57.46Z"/>
</svg>