<?xml version="1.0" encoding="UTF-8"?>
<svg id="Capa_1" data-name="Capa 1" xmlns="http://www.w3.org/2000/svg" viewBox="0 0 668.27 515.62">
  <defs>
    <style>
      .cls-1 {
        fill: #fff;
        stroke-width: 0px;
      }
    </style>
  </defs>
  <path class="cls-1" d="M558.69,334.52s-.04-.01-.05-.02c-1.38-.43-2.94.04-3.67,1.29-57.01,97.66-98.52,1.14-166.34,29.67,134.47-67.74,166.56-113.58,171.8-148.25,9.66-63.8-28.68-75.36-78.43-73.74-72.54,3.3-91.85,58.56-109.12,97.09,0,0,0,0,0,0-7.38,13.96-15.95,37.06-37.97,69.96-24.8,37.04-66.37,84.01-135.36,81.28-51.53-2.03-37.07-74.34-11.76-121.52,31.74-59.17,63.67-119.47,116.07-116.28,44.62,2.72,48.83,27.14,27.67,53.4-1.14,1.42.2,3.64,1.44,4.97,2.72,2.92,6.5,1.53,9.35-1.26,17.51-17.18,59.93-33.34,41.53-88.91-1.33-4-.72-8.22-4.93-8.29-1.37-.02-3.35.02-3.74,1.33-3.83,12.83,12.3,41.13-13.98,51.69-1.87-20.47-16.9-34.48-51.88-35.5-57.75-1.68-136.12,13.87-188.24,133.65-24.54,56.38-7.85,134.57,62.42,140.13,81.98,6.48,131.77-44.91,161.86-87.56,27.3-38.69,38.37-68.41,42.91-74.79l-.13-.03c16.66-31.31,36.79-78.7,93.85-79.64,29.59.29,38.48,21.27,32.56,50.57-21.35,105.51-154.63,144.28-176.54,163.65-4.41,3.9-7.99,13-8.06,15.1,0,.06,0,.12,0,.18-.15,4.53,4.47,7.82,8.6,5.96,43.45-19.67,180.55,54.4,222.18-60.07.61-1.67-.34-3.55-2.04-4.07Z"/>
</svg>